<?xml version="1.0" encoding="utf-8"?>
<!-- Generator: Adobe Illustrator 23.0.1, SVG Export Plug-In . SVG Version: 6.00 Build 0)  -->
<svg version="1.1" xmlns="http://www.w3.org/2000/svg" xmlns:xlink="http://www.w3.org/1999/xlink" x="0px" y="0px"
	 viewBox="0 0 841.9 595.3" style="enable-background:new 0 0 841.9 595.3;" xml:space="preserve">
<style type="text/css">
	.st0{fill:#ff2a2a;stroke:#000000;stroke-miterlimit:10;}
	.st1{fill:none;stroke:#000000;stroke-miterlimit:10;}
	.st2{fill:#FFFFFF;}
</style>
<g id="trace">
	<polygon class="st0" points="25,577.6 -12.5,583.8 -18.2,-9.2 847.4,-25.1 850.8,610.1 791.5,609.7 694.6,543.9 648.9,486.9 
		631.7,420.2 581.7,385.4 555.4,323.8 547.5,247.4 483.6,201.8 474.5,-11.4 427.7,-10.3 418.6,92.3 344.5,197.2 304.6,222.3 
		310.1,232.6 297,285.3 195.1,392.3 188.4,465.8 146,517.7 44.7,584.3 	"/>
</g>
<g id="Layer_1">
	<g>
		<path d="M25.8,577.7c7.1-2.4,14.4-4.6,21.4-7.4c9.7-3.9,19.5-8,28.9-12.7c10.1-5.1,19.9-10.9,29.7-16.8
			c8.7-5.2,17.4-10.5,25.4-16.7c8.6-6.7,16.9-14.1,24.4-22.1c10.4-11.1,17.8-24.3,24.4-38c3.6-7.5,6.2-15.6,8.5-23.7
			c2.5-9.1,4.2-18.5,6-27.9c0.4-2.3,0.1-4.8,0.1-8c-3.5,2.2-6.7,4-9.8,6c-13.8,8.8-28.4,15.9-43.8,21.2c-12.5,4.3-25.7,6.6-38.9,4.1
			c-17-3.3-30.7-20.4-20.5-39.6c6-11.4,15.5-18.7,26.7-24.4c12.2-6.2,25-9.2,38.5-6.2c7.1,1.6,12.8,6.2,16.3,12.6
			c2.1,3.9,3.2,8.5,4.1,12.9c0.6,3.2-0.8,7.1-4.2,7.3c-2,0.1-4.8-2.8-6.3-5c-1.7-2.5-2.3-5.7-3.3-8.6c-4.4-12-12.4-14-22.2-11.4
			c-12.5,3.3-23.9,9.3-32.2,19.6c-4.5,5.6-7.7,11.8-6.4,19.8c1.6,9.4,11.6,14.2,19.4,12.9c12-1.9,23.3-6.1,34.1-11.4
			c10.1-5,20.3-9.8,29.9-15.6c8.3-5,15.8-11.3,23.5-17.2c17.3-13.4,33.4-28.2,48-44.5c11.6-13,23.4-25.7,33.9-39.6
			c9.5-12.5,18-25.8,23.9-40.6c3-7.7,5.8-15.2,5.9-24.1c-2.6,1.3-4.9,2.3-7,3.5c-14,8.5-29.2,14.2-44.8,19.2
			c-17.4,5.6-35.1,9-53.3,9.2c-13.1,0.2-26.1-1.8-38.1-7.1c-9.5-4.2-17.1-11.3-18.7-21.9c-0.7-4.6,1.3-10.5,3.9-14.6
			c8-12.6,21.1-18.2,34.6-22.8c4.3-1.5,8.8-2.6,13.2-4.2c11.5-4,23.4-4.9,35-2.5c9.4,2,17.2,7.8,20.6,17.6c1.1,3.1,2.3,6.5,2.2,9.7
			c-0.1,2.2-2.3,4.6-4.1,6.2c-0.8,0.7-3.8,0-4.7-1c-1.8-2-3.7-4.6-4.1-7.2c-2.6-15.6-15.2-19.6-26.6-16.8c-13,3.2-25.8,7-37.7,13.2
			c-6,3.1-11.1,7.8-14.4,13.8c-3.3,6.1,0.6,15.8,7.6,19.1c6.4,3,13.1,4.6,20.3,4.7c16.4,0.4,32.3-1.8,47.7-7.4
			c13.9-5.1,28.2-9.6,41.4-16.2c13.4-6.7,25.8-15.4,38.3-23.7c16-10.6,29.8-23.9,42.4-38.1c9.7-10.9,17.9-23.1,26.6-34.9
			c8.7-11.8,14.7-25,19.8-38.5c2.6-6.8,4.1-14,5.5-21.2c2.4-12.4,4.5-24.9,6.6-37.4c1.5-9.1,2.7-18.3,4.1-28.4
			c0.8,0.9,2.2,1.7,2.3,2.6c0.4,4.5,0.9,9,0.6,13.5c-1.3,19.9-2,39.8-4.7,59.5c-1.8,13.5-5.5,26.8-12.2,39
			c-5.4,9.8-10.2,20-16.2,29.4c-9,14-19.2,27.1-30.9,39.1c-12.1,12.4-24.8,24-39.5,33.4c-3.6,2.3-7.2,4.5-10.5,7.1
			c-1.1,0.8-1.6,2.7-1.9,4.3c-0.9,6-1.3,12.1-2.5,18c-2.5,12.2-7.7,23.4-14,34.2c-5.1,8.6-9.6,17.6-15.3,25.8
			c-7.8,11.1-16.1,21.9-24.8,32.3c-9.2,10.9-18.8,21.4-28.9,31.4c-8.9,8.7-18.8,16.2-28.1,24.5c-1.2,1.1-1.6,3.4-1.7,5.2
			c-0.3,7.4,0.1,14.8-0.5,22.1c-1.2,13.5-3.9,26.8-9.2,39.3c-4,9.3-7.6,18.9-12.8,27.6c-6,10.3-14,19.2-22.6,27.7
			c-11.6,11.3-25.1,19.9-38.5,28.7c-11.8,7.8-24.4,14.4-37.1,20.7c-10.6,5.3-21.8,9.4-32.7,13.9c-5.1,2.1-10.3,4-15.4,5.8
			c-1.4,0.5-2.9,0.7-4.3,1C25.8,586.8,25.8,582.2,25.8,577.7z"/>
		<path d="M784.3,624.7c-6.3-4.3-12.5-8.6-18.8-13c-7.9-5.5-16.1-10.5-23.5-16.6c-15.9-13.2-31.9-26.5-46.8-40.8
			c-11.5-11-21.4-23.8-32.3-35.5c-8.1-8.7-14.9-18.3-20.1-28.9c-4.5-9.2-8.3-18.8-9.3-29.2c-0.7-7.2-1.1-14.5-2-21.7
			c-0.2-1.6-1.5-3.7-2.9-4.5c-15.8-8.9-29-20.9-40.3-34.9c-6.4-7.9-11.5-17-16.6-25.9c-6.9-11.9-11.7-24.8-15.4-38.1
			c-3.3-12-5.7-24-6.8-36.3c-1.3-14.3-2.3-28.6-3.5-42.8c-9.3-5.2-19.2-10.6-29-16.3c-9.6-5.6-17.6-13-24.7-21.6
			c-7-8.5-13.4-17.5-17.3-27.8c-2.8-7.4-4.4-15.6-5.2-23.5c-1.3-12.2-2.2-24.5-1.9-36.7c0.6-24.1,2-48.2,3.2-72.3
			c0.8-16.6,1.8-33.2,2.8-49.8c0.1-1.2,1.1-2.4,1.7-3.6c0.5,0.2,1,0.4,1.5,0.5c0.4,11.7,0.8,23.4,1.3,35.1c1.2,25,2.3,50,3.7,75
			c0.8,13.6,1.5,27.3,3.4,40.7c2.1,14.8,5.5,29.5,14,42.2c8.3,12.4,18.1,23.6,31,31.5c4.4,2.7,8.7,5.6,13.2,8
			c1.3,0.7,3.3-0.1,5.4-0.3c2.2,7.3,9.9,6.9,15.6,8.9c10.3,3.5,20.9,6.2,31.6,8c20.2,3.3,40.6,5.4,60.9,1.4
			c11.1-2.2,22.2-4.5,32.9-8.2c5.6-1.9,10.5-6.3,15.2-10.3c3.2-2.7,2.4-10.5-0.8-13.8c-7-7.1-15.7-11.4-25.6-12.4
			c-8.1-0.8-16.5-0.8-24.6,0.1c-4.7,0.5-9.1,3.3-13.8,5c-4.3,1.5-8.6,3.1-13.1,4.2c-1.2,0.3-3.4-0.8-3.9-1.8c-0.5-1,0.5-3,1.3-4.1
			c5.3-7.1,13.2-9.9,21.3-11.5c8.9-1.7,18.1-3.2,27.1-2.9c13.2,0.4,25.9,4.4,37.3,11.4c6.4,3.9,12.1,8.9,14.2,16.7
			c2.4,9-1.6,15.8-8.3,21.1c-7.8,6.2-16.4,11-26.3,13.3c-7.1,1.7-14,4.3-21.2,5.5c-18,3-36.2,4.1-54.3,1.9
			c-16.2-2-32.2-4.9-48.3-7.7c-4.9-0.9-9.6-3.1-14.8-4.8c0,4-0.3,7.4,0.1,10.7c0.6,4.9,1.4,9.7,2.5,14.5c3.1,13.1,6.2,26.2,9.8,39.2
			c2,7.2,4.7,14.3,7.6,21.2c5,11.9,11.2,23.2,18.5,33.9c7.8,11.4,16.6,21.8,27,30.8c5,4.3,10.2,8.3,15.5,12.4
			c0.6-0.8,0.9-1.2,1.1-1.5c0.8-1.2,1.6-2.4,2.5-3.7c0.3,1.4,0.5,2.8,1,4.1c0.7,1.8,1.1,4.5,2.4,5.2c8.9,4.4,17.8,8.8,27,12.4
			c9.4,3.6,19.1,6.9,28.9,9.2c11.2,2.7,22.3,6.4,34.1,5.3c12.6-1.2,20.8-8.6,25.3-20c1.6-4,2.4-8.5,2.6-12.8
			c0.4-8.2-5.4-12.7-12.2-14.9c-7.1-2.2-14.5-3.1-21.7-4.8c-3.3-0.7-6.5-1.9-9.7-2.8c-0.1-0.4-0.2-0.9-0.3-1.3
			c1.2-0.7,2.3-1.7,3.6-2.1c8.9-2.8,17.9-1.2,26.6,1c7.7,1.9,15.8,3.8,21.7,9.8c2.9,2.9,5.9,6.5,7,10.3c2.7,9.7-0.2,18.5-5.5,27
			c-4.8,7.6-10.4,13.9-18.7,17.3c-5.3,2.2-11,4.6-16.6,4.8c-10,0.2-20.2-0.2-30-2.1c-13.5-2.7-26.9-6.7-40.1-10.9
			c-8.3-2.6-16.1-6.7-24.5-10.2c0.1,11.5,2.2,22.2,7.1,32.2c3.7,7.5,7.4,15.1,12,22c4.6,6.9,10.1,13.4,15.8,19.5
			c6.7,7.2,14,13.9,21.1,20.8c6.5,6.2,12.8,12.6,19.7,18.4c11.4,9.5,22.9,19,34.8,27.8c9.9,7.3,20.5,13.7,30.8,20.5
			c4.7,3.1,9.3,6.3,14.2,9c2.4,1.3,2.9,3,2.8,5.4c-0.1,3.2,0,6.3,0,9.5C791.5,624.7,787.9,624.7,784.3,624.7z"/>
		<path d="M25.8,550.6c12.6-7.5,23.1-17.4,33.1-28c5.7-6.1,11.1-12.4,16.2-18.9c3.7-4.8,5.2-10.5,5.9-16.5c0.2-1.8,1.4-3.4,2.9-4.8
			c0.5,8.6-1.2,16.6-5.5,23.8C71,518.6,61,529.1,50.6,538.9c-7.3,7-16.5,12.1-24.9,18C25.8,554.8,25.8,552.7,25.8,550.6z"/>
		<path d="M646.1,155c-3.2,0.2-5.4-2.4-6.9-5.2c-5.3-9.8-10.5-19.6-15.3-29.7c-3.3-6.9-6.2-14.1-8.6-21.4
			c-4.5-13.8-8.4-27.8-9.1-42.3c-0.7-13.8-1.1-27.7-1.3-41.6c0-2.7,1.2-5.5,2.1-8.1c0.9-2.3,7.8-2.3,8.5,0.2c1,3.5,1.5,7.2,1.4,10.9
			c-0.2,6.4-1.2,12.7-1.6,19.1c-1,16.9,2.2,33.4,4.8,50c1.4,8.6,4,17,7,25.2c3.7,10.1,8.2,19.8,12.5,29.7
			C641.6,146.2,643.9,150.5,646.1,155z"/>
		<path d="M305.7,105.6c1.9-3.3,3.3-6.5,5.4-9c8.9-10.5,15-22.7,21.2-34.9c5.2-10.2,11-20,16.3-30.1c3.2-6.1,5.7-12.5,8.6-18.8
			c1-2.1,1.9-4.3,3.1-6.3c0.5-0.8,1.7-1.1,3.7-2.2c-1.8,5.8-3,10.4-4.6,14.9c-1.6,4.6-3.6,9-5.5,13.4c-3.3,7.5-6.7,15-10,22.5
			c-2.8,6.3-5.3,12.8-8.3,19c-4.9,9.9-9.5,20-17.4,27.9C315.2,105,312,107.6,305.7,105.6z"/>
		<path d="M162.3,172.6c1.7-1.8,3.2-3.9,5.2-5.3c6.6-4.5,13.6-8.3,20-13c7.2-5.3,14.3-10.8,20.7-17c9.7-9.5,18.8-19.5,27.9-29.5
			c3.3-3.7,5.9-8,9-11.9c0.9-1.2,2.4-1.9,3.6-2.9c0.4,0.4,0.7,0.8,1.1,1.1c-3.4,4.7-6.5,9.6-10.1,14.2c-6.6,8.5-13.3,16.9-20.2,25
			c-9.1,10.7-18.5,21.1-30.7,28.4c-6.4,3.8-12.7,7.8-19.3,11.5c-1.7,0.9-3.9,0.7-5.9,1C163.1,173.7,162.7,173.1,162.3,172.6z"/>
		<path d="M174.5,352.8c4-2.9,7.7-6.2,11.9-8.7c12.2-7.5,23.6-16,33.4-26.4c3.1-3.3,5.1-7.9,6.8-12.2c0.6-1.6-0.9-4-1.5-6
			c0.5-0.3,1-0.6,1.4-0.9c0.8,1.1,1.9,2.2,2.3,3.4c1.8,7.1-1.8,12.8-5.9,17.6c-11.1,13.3-24.6,24.1-39.5,32.9
			c-2.3,1.4-5.3,1.8-7.9,2.6C175.2,354.2,174.8,353.5,174.5,352.8z"/>
		<path d="M117,226.9c-7.6,7.2-15.2,14.6-23.1,21.8c-9.4,8.6-19,17.1-28.7,25.4c-1.6,1.4-4,1.8-6.1,2.7c-0.4-0.5-0.8-1-1.2-1.5
			c1.3-1.6,2.3-3.5,3.9-4.8c10-8.2,20.1-16.2,30-24.4c5.7-4.8,11.2-9.9,16.6-15.1C112,227.5,114.6,226,117,226.9z"/>
		<path d="M625.4,331.5c1.6,2.3,3.6,4.4,4.6,6.9c4.3,11.5,10.6,21.6,19,30.4c2.8,2.9,6.1,5.4,9.1,8.2c0.9,0.9,1.4,2.3,2.2,3.7
			c-5.4,1.5-8.2-2-10.9-4.5c-9.1-8.2-15.1-18.5-19.4-29.9c-1.7-4.6-4.1-9-6.1-13.5C624.3,332.3,624.8,331.9,625.4,331.5z"/>
		<path d="M777.6,311c-6.6,0.8-10.2-1.9-12.3-9.8c-2.1-8.1-2.3-16.3-0.4-24.5c0.3-1.2,1.4-2.3,2.2-3.4c0.4,0.2,0.7,0.4,1.1,0.6
			c-0.4,4.8-1.2,9.7-0.9,14.5c0.3,4.7,1.7,9.4,2.7,14.1c0.6-0.1,1.1-0.2,1.7-0.2c0-2.4,0-4.8,0-7.4
			C775.4,296.5,778.3,304.6,777.6,311z"/>
		<path d="M114,486c-3.3,6.4-6.1,12.7-9.5,18.5c-4.5,7.7-9.3,15.1-14.4,22.4c-0.9,1.3-3.6,1.2-5.5,1.8c-0.3-0.4-0.6-0.8-1-1.2
			c1.2-1.5,2.3-3.2,3.6-4.6c7.9-7.9,12.6-17.8,17.9-27.4c1.6-2.9,3.8-5.6,5.9-8.1C111.7,486.5,113.2,486.3,114,486z"/>
		<path d="M701.2,494.8c3,0.1,5.5,1.2,6.9,3.8c3.4,6.2,6.2,12.6,9.8,18.7c2.7,4.5,6.3,8.4,9.4,12.6c0.7,0.9,1.5,1.8,1.9,2.9
			c0.3,0.8,0,1.9-0.1,2.9c-1-0.1-2.3,0.1-2.9-0.5c-2.6-2.5-5.3-5-7.3-8c-5.2-7.9-9.8-16.1-12.5-25.3
			C705.7,499.4,703.2,497.4,701.2,494.8z"/>
		<path d="M730.8,505.9c0.7,1.1,1.8,2.2,1.9,3.3c0.6,8.8,3.5,16.8,7.6,24.4c1.5,2.7,4.2,4.7,6.4,7.1c1.1,1.2,2.1,2.4,2.8,4.7
			c-2.3-0.7-5.2-0.8-6.6-2.3c-3.4-3.6-7.1-7.4-8.7-11.9c-2.7-7.8-3.8-16.1-5.5-24.1C729.4,506.6,730.1,506.2,730.8,505.9z"/>
		<path d="M551.4,190.8c-2-2.2-4.6-4.2-6-6.8c-5.4-9.7-10.4-19.5-15.6-29.3c0.6-0.5,1.3-1,1.9-1.5c1,1,2.5,1.7,2.8,2.9
			c3,9.4,8.9,16.9,14.5,24.8c1.8,2.6,2.8,5.7,4.2,8.6C552.6,190,552,190.4,551.4,190.8z"/>
		<path d="M349.6,131.5c7.2,10.7-3.4,31-17,32.4c1.7-1.9,3.1-4.2,5.1-5.5c7.1-4.5,10.9-10.5,10.5-19.1
			C348.1,137,349,134.7,349.6,131.5z"/>
		<polyline class="st1" points="429.5,7.8 428.5,-10.2 475.3,-11.3 473.9,8.6 476.4,16 		"/>
	</g>
	<path class="st2" d="M345.3,197.3"/>
	<line class="st2" x1="394.3" y1="278.3" x2="396.6" y2="425.4"/>
	<path d="M459.3-10.2"/>
</g>
</svg>
